HIERARCHY
ROOT Hips
{
	OFFSET 53.452702 -8.470023 84.469398
	CHANNELS 6 Xposition Yposition Zposition Xrotation Yrotation Zrotation
	JOINT spine
	{
		OFFSET 0.000000 -0.342408 5.954384
		CHANNELS 3 Xrotation Yrotation Zrotation
		JOINT spine1
		{
			OFFSET 0.000000 -0.000002 8.856018
			CHANNELS 3 Xrotation Yrotation Zrotation
			JOINT spine2
			{
				OFFSET 0.000000 -0.000001 8.485672
				CHANNELS 3 Xrotation Yrotation Zrotation
				JOINT Neck
				{
					OFFSET 0.000000 -1.038704 21.786301
					CHANNELS 3 Xrotation Yrotation Zrotation
					JOINT Head
					{
						OFFSET 0.000000 -0.000001 6.582199
						CHANNELS 3 Xrotation Yrotation Zrotation
						End Site
						{
							OFFSET 0.000000 5.254357 15.932602
						}
					}
				}
				JOINT RightShoulder
				{
					OFFSET -3.573071 0.497523 9.163864
					CHANNELS 3 Xrotation Yrotation Zrotation
					JOINT RightArm
					{
						OFFSET 0.000000 -0.000002 12.019196
						CHANNELS 3 Xrotation Yrotation Zrotation
						JOINT RightArmRoll
						{
							OFFSET 0.000000 -0.000001 6.067535
							CHANNELS 3 Xrotation Yrotation Zrotation
							JOINT RightForeArm
							{
								OFFSET 0.000000 -0.000003 17.672592
								CHANNELS 3 Xrotation Yrotation Zrotation
								JOINT RightForeArmRoll
								{
									OFFSET 0.000000 -0.000001 6.808716
									CHANNELS 3 Xrotation Yrotation Zrotation
									JOINT RightHand
									{
										OFFSET 0.000000 -0.000003 13.663605
										CHANNELS 3 Xrotation Yrotation Zrotation
										End Site
										{
											OFFSET 0.000000 0.000000 0.100006
										}
									}
								}
							}
						}
					}
				}
				JOINT LeftShoulder
				{
					OFFSET 3.573071 0.497523 9.163864
					CHANNELS 3 Xrotation Yrotation Zrotation
					JOINT LeftArm
					{
						OFFSET 0.000000 -0.000002 12.019196
						CHANNELS 3 Xrotation Yrotation Zrotation
						JOINT LeftArmRoll
						{
							OFFSET 0.000000 -0.000001 6.067551
							CHANNELS 3 Xrotation Yrotation Zrotation
							JOINT LeftForeArm
							{
								OFFSET 0.000000 -0.000003 17.672607
								CHANNELS 3 Xrotation Yrotation Zrotation
								JOINT LeftForeArmRoll
								{
									OFFSET 0.000000 -0.000001 6.808716
									CHANNELS 3 Xrotation Yrotation Zrotation
									JOINT LeftHand
									{
										OFFSET 0.000000 -0.000003 13.663605
										CHANNELS 3 Xrotation Yrotation Zrotation
										End Site
										{
											OFFSET 0.000000 0.000000 0.100006
										}
									}
								}
							}
						}
					}
				}
			}
		}
	}
	JOINT RightUpLeg
	{
		OFFSET -5.277740 0.811858 -0.967796
		CHANNELS 3 Xrotation Yrotation Zrotation
		JOINT RightUpLegRoll
		{
			OFFSET 0.000000 -0.000002 16.021400
			CHANNELS 3 Xrotation Yrotation Zrotation
			JOINT RightLeg
			{
				OFFSET 0.000000 0.000003 -19.840096
				CHANNELS 3 Xrotation Yrotation Zrotation
				JOINT RightLegRoll
				{
					OFFSET 0.000000 -0.000003 19.904999
					CHANNELS 3 Xrotation Yrotation Zrotation
					JOINT RightFoot
					{
						OFFSET 0.000000 -0.000003 16.567497
						CHANNELS 3 Xrotation Yrotation Zrotation
						JOINT RightToeBase
						{
							OFFSET 0.000000 -0.000002 13.849602
							CHANNELS 3 Xrotation Yrotation Zrotation
							End Site
							{
								OFFSET 0.005871 0.773116 6.707275
							}
						}
					}
				}
			}
		}
	}
	JOINT LeftUpLeg
	{
		OFFSET 5.277740 0.811858 -0.967796
		CHANNELS 3 Xrotation Yrotation Zrotation
		JOINT LeftUpLegRoll
		{
			OFFSET 0.000000 -0.000002 16.021500
			CHANNELS 3 Xrotation Yrotation Zrotation
			JOINT LeftLeg
			{
				OFFSET 0.000000 -0.000003 19.839996
				CHANNELS 3 Xrotation Yrotation Zrotation
				JOINT LeftLegRoll
				{
					OFFSET 0.000000 -0.000003 20.089005
					CHANNELS 3 Xrotation Yrotation Zrotation
					JOINT LeftFoot
					{
						OFFSET 0.000000 -0.000002 16.383499
						CHANNELS 3 Xrotation Yrotation Zrotation
						JOINT LeftToeBase
						{
							OFFSET 0.000000 -0.000002 13.849594
							CHANNELS 3 Xrotation Yrotation Zrotation
							End Site
							{
								OFFSET -0.026310 0.773116 6.707275
							}
						}
					}
				}
			}
		}
	}
}
MOTION
Frames: 8
Frame Time: 0.041667
52.677006 -6.388086 84.476501 -6.961488 1.639599 1.199303 -1.107173 -0.080944 0.022695 1.788528 -0.156741 0.044755 3.433594 -0.156183 0.047479 12.993286 1.424184 -0.740160 7.393334 -8.747412 0.401335 -16.690305 -7.614008 -18.772702 205.929370 -164.533752 262.925810 0.000001 -0.000003 0.000002 67.858025 2.630715 -4.344911 -0.000000 0.000001 -3.000001 -5.000169 -7.999930 0.000007 -18.211234 6.807148 21.427159 -876.186830 188.381385 813.139922 0.000003 0.000012 0.000006 47.735523 -3.217974 3.800914 0.000001 -0.000010 3.000000 -5.000142 7.999917 0.000002 1.386858 -181.062714 2.470063 179.999991 -0.000007 -1.147999 170.776149 -2.663170 -0.531318 -0.000003 0.000002 0.124168 69.438845 6.887766 2.125966 25.456962 -7.355616 -0.000000 0.078631 176.059013 -1.993024 -0.000005 -0.000004 -1.133490 -12.508803 2.383711 0.621910 -0.000003 -0.000004 -0.212866 70.746539 -6.838880 -2.142032 25.456964 7.355614 0.000001 
52.667606 -6.388864 84.474594 -6.945380 1.645353 1.217355 -1.115214 -0.081449 0.022695 1.772428 -0.157414 0.044305 3.417494 -0.156860 0.047291 13.038286 1.422162 -0.742054 7.358211 -8.771093 0.401009 -16.665894 -7.692449 -18.732619 205.906120 -164.430780 262.880457 -0.000001 -0.000003 0.000003 67.839939 2.631153 -4.344384 -0.000000 0.000003 -3.000002 -5.000174 -7.999927 0.000006 -18.219154 6.826685 21.441577 -876.154865 188.249262 813.185329 0.000003 0.000012 0.000008 47.803753 -3.216311 3.803108 -0.000000 -0.000012 2.999996 -5.000145 7.999921 -0.000000 1.373387 -181.068725 2.468029 179.999991 -0.000007 -1.147002 170.782952 -2.668156 -0.530791 -0.000004 0.000002 0.124054 69.437916 6.887830 2.125934 25.456967 -7.355616 0.000001 0.048462 176.045995 -1.998101 -0.000004 -0.000004 -1.132940 -12.521938 2.386294 0.623021 -0.000003 -0.000004 -0.212823 70.746628 -6.838815 -2.142116 25.456962 7.355615 -0.000001 
52.666309 -6.382101 84.479286 -6.929423 1.650988 1.236144 -1.123282 -0.082009 0.022665 1.756297 -0.158225 0.043868 3.401373 -0.157676 0.047059 13.083594 1.420489 -0.744292 7.322856 -8.792420 0.399912 -16.641406 -7.773303 -18.692559 205.882556 -164.324325 262.834285 0.000001 -0.000001 -0.000001 67.825274 2.631447 -4.343985 0.000001 0.000005 -3.000001 -5.000174 -7.999926 0.000007 -18.223201 6.852481 21.449325 -876.123555 188.112931 813.230682 0.000003 0.000012 0.000005 47.878605 -3.214482 3.805530 0.000003 -0.000011 3.000001 -5.000143 7.999917 0.000001 1.359689 -181.074722 2.466153 179.999991 -0.000007 -1.147002 170.789058 -2.674123 -0.530469 -0.000004 0.000002 0.123938 69.437185 6.887868 2.126087 25.456965 -7.355615 0.000000 0.017323 176.033004 -2.004218 -0.000005 -0.000004 -1.132440 -12.536886 2.389846 0.624266 -0.000003 -0.000004 -0.212782 70.746177 -6.838778 -2.142139 25.456960 7.355615 -0.000000 
52.667309 -6.377206 84.472801 -6.913632 1.656493 1.255710 -1.131342 -0.082638 0.022600 1.740177 -0.159199 0.043448 3.385244 -0.158655 0.046780 13.129101 1.419389 -0.746903 7.287481 -8.811245 0.397998 -16.616716 -7.856220 -18.652608 205.858568 -164.213826 262.787075 -0.000001 -0.000003 0.000003 67.814612 2.631566 -4.343758 0.000001 0.000003 -3.000003 -5.000173 -7.999928 0.000007 -18.223264 6.884650 21.449936 -876.093393 187.972079 813.276034 0.000003 0.000012 0.000004 47.960858 -3.212481 3.808201 -0.000000 -0.000012 2.999999 -5.000144 7.999921 0.000003 1.345770 -181.080719 2.464443 179.999991 -0.000007 -1.147002 170.794426 -2.680083 -0.531177 -0.000005 0.000002 0.123822 69.436666 6.887915 2.126127 25.456964 -7.355616 -0.000001 -0.014863 176.019002 -2.011487 -0.000005 -0.000004 -1.131990 -12.553745 2.394473 0.625653 -0.000003 -0.000004 -0.212741 70.745324 -6.838740 -2.142085 25.456960 7.355613 0.000000 
52.658108 -6.375575 84.474800 -6.897517 1.661920 1.276603 -1.139499 -0.083326 0.022501 1.723857 -0.160313 0.043048 3.368923 -0.159774 0.046453 13.174509 1.418084 -0.750459 7.252271 -8.827197 0.394743 -16.592577 -7.941864 -18.613753 205.834567 -164.100800 262.739510 0.000002 -0.000003 0.000001 67.807639 2.631500 -4.343655 0.000001 0.000002 -3.000001 -5.000169 -7.999927 0.000011 -18.219589 6.923913 21.443956 -876.064214 187.828221 813.321223 0.000004 0.000011 0.000006 48.049244 -3.210321 3.811089 0.000000 -0.000011 3.000000 -5.000140 7.999921 0.000002 1.330991 -181.086729 2.462792 179.999991 -0.000007 -1.146005 170.798757 -2.686049 -0.530937 -0.000004 0.000002 0.123705 69.436577 6.887944 2.126240 25.456965 -7.355617 0.000001 -0.049344 176.004003 -2.020231 -0.000004 -0.000004 -1.131570 -12.573516 2.400497 0.627261 -0.000003 -0.000004 -0.212700 70.743602 -6.838695 -2.142181 25.456965 7.355616 -0.000001 
52.656204 -6.371314 84.472900 -6.880636 1.667351 1.299182 -1.147829 -0.084056 0.022370 1.707178 -0.161523 0.042664 3.352254 -0.160991 0.046082 13.219509 1.415759 -0.755342 7.217113 -8.840141 0.389820 -16.569419 -8.031093 -18.576320 205.811071 -163.987036 262.691971 -0.000001 -0.000003 0.000002 67.803786 2.631240 -4.343703 -0.000003 0.000004 -3.000002 -5.000170 -7.999928 0.000010 -18.212991 6.970649 21.432719 -876.035582 187.682984 813.366466 0.000004 0.000011 0.000007 48.141417 -3.208071 3.814139 -0.000000 -0.000010 3.000000 -5.000142 7.999918 0.000003 1.314880 -181.091742 2.461163 179.999991 -0.000007 -1.146005 170.801980 -2.691994 -0.531743 -0.000004 0.000002 0.123588 69.437110 6.887968 2.126309 25.456962 -7.355618 0.000000 -0.086950 175.988007 -2.030536 -0.000004 -0.000004 -1.131170 -12.596710 2.408030 0.629134 -0.000003 -0.000004 -0.212659 70.741034 -6.838645 -2.142231 25.456962 7.355615 -0.000001 
52.658409 -6.375083 84.459892 -6.863190 1.672773 1.323199 -1.156323 -0.084824 0.022208 1.690199 -0.162822 0.042292 3.335274 -0.162296 0.045669 13.264507 1.412578 -0.761313 7.181782 -8.850327 0.383482 -16.546852 -8.123896 -18.540147 205.788190 -163.872385 262.644215 -0.000001 -0.000002 0.000001 67.802632 2.630817 -4.343850 -0.000001 0.000002 -3.000000 -5.000173 -7.999927 0.000008 -18.203569 7.024468 21.416388 -876.007223 187.535999 813.411764 0.000003 0.000011 0.000007 48.237412 -3.205732 3.817342 0.000002 -0.000011 3.000002 -5.000144 7.999917 0.000001 1.297677 -181.097739 2.459526 179.999991 -0.000007 -1.146005 170.804180 -2.698915 -0.531759 -0.000004 0.000003 0.123469 69.438182 6.888016 2.126252 25.456967 -7.355617 0.000001 -0.127134 175.970002 -2.042204 -0.000005 -0.000004 -1.130789 -12.622718 2.416862 0.631230 -0.000003 -0.000004 -0.212620 70.737619 -6.838622 -2.142237 25.456962 7.355614 -0.000000 
52.657005 -6.363303 84.460594 -6.845365 1.678177 1.348419 -1.164935 -0.085624 0.022019 1.672979 -0.164200 0.041927 3.318054 -0.163679 0.045217 13.309398 1.408696 -0.768118 7.146056 -8.858014 0.375985 -16.524772 -8.220258 -18.504709 205.765678 -163.756422 262.596240 -0.000003 -0.000003 0.000001 67.803780 2.630260 -4.344105 0.000002 0.000003 -3.000002 -5.000173 -7.999931 0.000007 -18.191411 7.084995 21.395057 -875.979083 187.386937 813.457444 0.000003 0.000012 0.000003 48.336914 -3.203305 3.820675 0.000002 -0.000012 2.999999 -5.000142 7.999919 0.000002 1.279668 -181.103736 2.457946 179.999991 -0.000007 -1.144994 170.805505 -2.704845 -0.532654 -0.000004 0.000002 0.123350 69.439569 6.888038 2.126371 25.456965 -7.355616 0.000000 -0.169338 175.952025 -2.055025 -0.000005 -0.000004 -1.130430 -12.651038 2.426802 0.633517 -0.000002 -0.000004 -0.212580 70.733569 -6.838593 -2.142281 25.456964 7.355616 -0.000001 
